<svg width="64" height="64" viewBox="0 0 64 64" fill="none" xmlns="http://www.w3.org/2000/svg">
<rect x="0.5" y="0.5" width="63" height="63" rx="3.5" fill="white" stroke="#B991FF"/>
<path d="M51.2032 20.3091H12.7968C12.3568 20.3091 12 20.6659 12 21.1059V42.8941C12 43.3341 12.3568 43.6909 12.7968 43.6909H51.2032C51.6432 43.6909 52 43.3341 52 42.8941V21.1059C52 20.6659 51.6432 20.3091 51.2032 20.3091ZM50.4064 42.0973H13.5936V21.9027H50.4063L50.4064 42.0973Z" fill="#B991FF"/>
<path d="M46.7677 36.4845H36.2972C35.8572 36.4845 35.5004 36.8412 35.5004 37.2812C35.5004 37.7213 35.8571 38.078 36.2972 38.078H46.7677C47.2077 38.078 47.5645 37.7213 47.5645 37.2812C47.5645 36.8412 47.2077 36.4845 46.7677 36.4845Z" fill="#B991FF"/>
<path d="M46.7677 31.3682H36.2972C35.8572 31.3682 35.5004 31.7249 35.5004 32.165C35.5004 32.6051 35.8571 32.9618 36.2972 32.9618H46.7677C47.2077 32.9618 47.5645 32.6051 47.5645 32.165C47.5645 31.7249 47.2077 31.3682 46.7677 31.3682Z" fill="#B991FF"/>
<path d="M46.8108 26.2518H46.1833C45.7433 26.2518 45.3865 26.6085 45.3865 27.0486C45.3865 27.4887 45.7433 27.8454 46.1833 27.8454H46.8108C47.2508 27.8454 47.6076 27.4887 47.6076 27.0486C47.6076 26.6086 47.2508 26.2518 46.8108 26.2518Z" fill="#B991FF"/>
<path d="M43.1554 26.2518H36.2972C35.8572 26.2518 35.5004 26.6085 35.5004 27.0486C35.5004 27.4887 35.8571 27.8454 36.2972 27.8454H43.1554C43.5954 27.8454 43.9522 27.4887 43.9522 27.0486C43.9522 26.6086 43.5954 26.2518 43.1554 26.2518Z" fill="#B991FF"/>
<path d="M24.5773 32.7855C20.1687 32.7855 16.582 35.7317 16.582 39.353C16.582 39.793 16.9387 40.1498 17.3788 40.1498H31.7758C32.2158 40.1498 32.5726 39.793 32.5726 39.353C32.5727 35.7316 28.986 32.7855 24.5773 32.7855ZM18.2577 38.5563C18.705 36.407 20.9313 34.7148 23.721 34.4238V36.2C23.721 36.6401 24.0778 36.9968 24.5178 36.9968C24.9578 36.9968 25.3146 36.6401 25.3146 36.2V34.4132C28.1595 34.668 30.4433 36.3766 30.897 38.5563H18.2577Z" fill="#B991FF"/>
<path d="M24.51 23.7244C22.2253 23.7244 20.3666 25.5831 20.3666 27.8678C20.3666 30.1525 22.2253 32.0112 24.51 32.0112C26.7947 32.0112 28.6534 30.1525 28.6534 27.8678C28.6534 25.5831 26.7947 23.7244 24.51 23.7244ZM24.51 30.4176C23.104 30.4176 21.9602 29.2737 21.9602 27.8678C21.9602 26.4619 23.1041 25.318 24.51 25.318C25.9159 25.318 27.0598 26.4619 27.0598 27.8678C27.0598 29.2737 25.9159 30.4176 24.51 30.4176Z" fill="#B991FF"/>
</svg>
